<svg xmlns="http://www.w3.org/2000/svg" xmlns:xlink="http://www.w3.org/1999/xlink" viewBox="0 0 66 65" fill="#fff" fill-rule="evenodd" stroke="#000" stroke-linecap="round" stroke-linejoin="round"><use xlink:href="#A" x=".5" y=".5"/><symbol id="A" overflow="visible"><g stroke="none" fill-rule="nonzero"><path d="M0 32C0 14.272 14.272 0 32 0s32 14.272 32 32-14.272 32-32 32S0 49.728 0 32z" fill="#00b22d"/><path d="M15.296 26.08c0-.798.642-1.44 1.44-1.44s1.44.642 1.44 1.44-.642 1.44-1.44 1.44-1.44-.642-1.44-1.44zm2.944 2.384h-6.592v-.432c0-.848.848-.864 1.28-.864.496 0 .72.048.72.048V24.88s-.448-.064-1.056-.064c-1.376 0-3.92.384-3.92 3.296v.368h-1.2v2.16h1.2v4.56h-1.12v2.16h5.408V35.2h-1.312v-4.56h3.6v4.56h-1.12v2.16h5.232V35.2h-1.12zm11.2 0h-4.72v2.16h.8l-1.024 3.2c-.192.528-.24 1.168-.24 1.168h-.064s-.048-.64-.24-1.168l-1.024-3.2h.8v-2.16h-4.72v2.16H20l2.464 6.72h3.52l2.464-6.72h.992zm8.736 4.08c0-2.464-1.488-4.288-4.128-4.288-2.864 0-4.624 2.032-4.624 4.64 0 2.368 1.712 4.656 4.88 4.656 2.4 0 3.824-1.248 3.824-1.248L37.04 34.24s-1.184.848-2.496.848c-.944 0-1.84-.496-2.064-1.632h5.632c-.016-.016.064-.624.064-.912zm-5.632-.736c.16-.688.576-1.312 1.424-1.312.656 0 1.12.608 1.12 1.312zM50.8 30.512h-.032s.032-.176.032-.448V29.6c0-.816-.448-1.136-1.264-1.136h-2.8v2.16h.832a.35.35 0 0 1 .384.384V35.2h-1.2v2.16h5.392V35.2h-1.2v-1.296c0-1.616.8-2.672 2.448-2.672.368 0 .608.048.608.048v-2.928s-.176-.032-.352-.032c-1.344-.016-2.464.976-2.848 2.192zm-7.888 0h-.032s.032-.176.032-.448V29.6c0-.816-.448-1.136-1.264-1.136h-2.8v2.16h.832a.35.35 0 0 1 .384.384V35.2h-1.2v2.16h5.392V35.2h-1.2v-1.296c0-1.616.8-2.672 2.448-2.672.368 0 .608.048.608.048v-2.928s-.176-.032-.352-.032c-1.36-.016-2.48.976-2.848 2.192z"/></g></symbol></svg>